<?xml version="1.0" encoding="UTF-8" standalone="no"?>
<svg
   xmlns:dc="http://purl.org/dc/elements/1.1/"
   xmlns:cc="http://creativecommons.org/ns#"
   xmlns:rdf="http://www.w3.org/1999/02/22-rdf-syntax-ns#"
   xmlns:svg="http://www.w3.org/2000/svg"
   xmlns="http://www.w3.org/2000/svg"
   xmlns:sodipodi="http://sodipodi.sourceforge.net/DTD/sodipodi-0.dtd"
   xmlns:inkscape="http://www.inkscape.org/namespaces/inkscape"
   width="95.492897mm"
   height="67.123428mm"
   viewBox="0 0 95.492897 67.123428"
   version="1.1"
   id="svg136"
   inkscape:version="1.0.2 (1.0.2+r75+1)"
   sodipodi:docname="pydatabh.svg"
   inkscape:export-filename="/home/andre/Documents/andre/mestrado/2021/semestre1/pydata/imagens/pydatabh.png"
   inkscape:export-xdpi="96"
   inkscape:export-ydpi="96">
  <defs
     id="defs130" />
  <sodipodi:namedview
     id="base"
     pagecolor="#ffffff"
     bordercolor="#666666"
     borderopacity="1.0"
     inkscape:pageopacity="0.0"
     inkscape:pageshadow="2"
     inkscape:zoom="2"
     inkscape:cx="65.126486"
     inkscape:cy="137.13549"
     inkscape:document-units="mm"
     inkscape:current-layer="layer1"
     inkscape:document-rotation="0"
     showgrid="false"
     fit-margin-top="0"
     fit-margin-left="0"
     fit-margin-right="0"
     fit-margin-bottom="0"
     inkscape:window-width="1920"
     inkscape:window-height="1016"
     inkscape:window-x="0"
     inkscape:window-y="27"
     inkscape:window-maximized="1" />
  <metadata
     id="metadata133">
    <rdf:RDF>
      <cc:Work
         rdf:about="">
        <dc:format>image/svg+xml</dc:format>
        <dc:type
           rdf:resource="http://purl.org/dc/dcmitype/StillImage" />
        <dc:title />
      </cc:Work>
    </rdf:RDF>
  </metadata>
  <g
     inkscape:label="Layer 1"
     inkscape:groupmode="layer"
     id="layer1"
     transform="translate(-47.942435,-57.904482)">
    <g
       id="g128"
       transform="matrix(0.26458333,0,0,0.26458333,149.14916,-191.82084)">
      <path
         id="path46-3"
         style="fill:#eb9042;stroke-width:1.33333"
         d="m -76.207031,943.84375 0.01172,59.46675 53.988281,28.2754 -0.002,-59.40621 z m -112.777349,48.13477 c -40.93706,0 -41.88867,0.0599 -41.88867,2.65429 2.14995,26.30999 6.20581,52.54259 8.75781,78.75779 0.27531,0.3969 0.55805,0.7797 0.82812,1.1856 9.61245,14.4467 29.08008,51.8856 29.08008,54.9511 -1.23887,-13.9407 -4.16077,-43.6818 -5.51367,-57.0683 -3.05324,-30.1685 -5.17998,-55.8185 -4.72657,-57 0.69001,-1.7982 3.25265,-2.1485 15.72266,-2.1485 h 14.89844 l 24.08398,0.049 c 0.79606,-11.4848 1.27682,-19.49378 1.11133,-19.99026 -0.30919,-0.92758 -14.43809,-1.39062 -42.35352,-1.39062 z m 109.537114,16.27148 -55.689454,28.7305 54.623048,28.2539 54.304688,-27.9199 z"
         sodipodi:nodetypes="ccccccccsccssccsscccccc" />
      <path
         style="fill:#449bb6;stroke-width:1.33333"
         d="m -138.51362,1168.0952 0.76894,-58.5216 55.231058,28.4614 -0.33333,59.5036 z m -243.99999,-23.5775 c 0,-2.6333 10.64664,-21.7575 19.08263,-34.2774 16.73373,-24.8347 37.1646,-47.7163 50.64088,-56.7154 16.46758,-10.9967 39.68189,-13.5737 57.61787,-6.6776 10.13964,3.8985 24.09319,12.735 34.24454,27.9915 9.61245,14.4466 29.08074,51.8854 29.08074,54.9508 0,2.1583 -1.17932,2.4507 -9.88492,2.4507 h -9.88493 l -6.79028,-12.5959 c -3.73467,-6.9278 -10.39524,-17.3801 -14.8013,-23.2274 -23.80738,-31.5948 -47.29229,-38.9257 -69.90761,-21.822 -8.26125,6.2479 -25.36801,27.3686 -42.73096,52.7573 l -13.33333,19.4965 -11.66667,0.029 c -10.33713,0.026 -11.66666,-0.2432 -11.66666,-2.3602 z m 244.66666,-42.5754 0.0467,-59.0353 55.286578,28.5594 -0.33333,59.4026 z"
         id="path44-5"
         sodipodi:nodetypes="cccccssssssscsssscsssccccc" />
      <path
         style="fill:#667a82;stroke-width:1.33333"
         d="m -181.59515,1147.5188 9.76498,-134.3333 24.08797,0.049 -11.43695,134.6174 h -11.20821 c -6.16452,0 -11.20801,-0.15 -11.20779,-0.3333 z m 105.332908,-76.6697 54.66666,-28.5455 v 59.6304 l -54.66666,28.2753 z"
         id="path42-3"
         sodipodi:nodetypes="ccccsccccccc" />
    </g>
  </g>
</svg>
